<svg width="400" height="400" viewBox="0 0 400 400" fill="none" xmlns="http://www.w3.org/2000/svg">
<path fill-rule="evenodd" clip-rule="evenodd" d="M300 55H100C97.2386 55 95 57.2386 95 60V350C95 352.761 97.2386 355 100 355H300C302.761 355 305 352.761 305 350V60C305 57.2386 302.761 55 300 55ZM100 50C94.4772 50 90 54.4772 90 60V350C90 355.523 94.4772 360 100 360H300C305.523 360 310 355.523 310 350V60C310 54.4772 305.523 50 300 50H100Z" fill="black"/>
<path fill-rule="evenodd" clip-rule="evenodd" d="M157.955 27.5H241.045L252 50H245.646L237.955 32.5H161.045L152 50H146.5L157.955 27.5Z" fill="black"/>
<path fill-rule="evenodd" clip-rule="evenodd" d="M274 75H124C121.239 75 119 77.2386 119 80V330C119 332.761 121.239 335 124 335H274C276.761 335 279 332.761 279 330V80C279 77.2386 276.761 75 274 75ZM124 70C118.477 70 114 74.4771 114 80V330C114 335.523 118.477 340 124 340H274C279.523 340 284 335.523 284 330V80C284 74.4772 279.523 70 274 70H124Z" fill="black"/>
<path d="M184.799 131H171.524V101.75H184.349V104.45H174.674V114.8H182.549V117.5H174.674V128.3H184.799V131Z" fill="black"/>
<path d="M205.873 125.375C205.873 129.575 203.338 131.675 198.268 131.675C193.198 131.675 190.663 129.575 190.663 125.375V121.55H193.813V125.555C193.813 126.635 194.188 127.475 194.938 128.075C195.688 128.675 196.798 128.975 198.268 128.975C199.738 128.975 200.848 128.675 201.598 128.075C202.348 127.475 202.723 126.665 202.723 125.645C202.723 124.595 202.603 123.77 202.363 123.17C202.153 122.54 201.703 121.88 201.013 121.19L193.093 113.45C192.163 112.52 191.518 111.62 191.158 110.75C190.828 109.85 190.663 108.725 190.663 107.375C190.663 105.365 191.278 103.82 192.508 102.74C193.768 101.63 195.658 101.075 198.178 101.075C203.008 101.075 205.423 103.175 205.423 107.375V111.2H202.273V107.195C202.273 106.115 201.913 105.275 201.193 104.675C200.503 104.075 199.453 103.775 198.043 103.775C196.633 103.775 195.568 104.075 194.848 104.675C194.158 105.275 193.813 106.1 193.813 107.15C193.813 108.2 193.918 109.025 194.128 109.625C194.338 110.225 194.803 110.855 195.523 111.515L203.578 119.255C204.448 120.215 205.048 121.145 205.378 122.045C205.708 122.915 205.873 124.025 205.873 125.375Z" fill="black"/>
<path d="M219.961 118.85V116.15H228.151V131H226.801L225.631 128.12C225.001 129.2 224.176 130.07 223.156 130.73C222.136 131.36 221.026 131.675 219.826 131.675C215.476 131.675 213.301 129.575 213.301 125.375V107.375C213.301 105.365 213.916 103.82 215.146 102.74C216.376 101.63 218.221 101.075 220.681 101.075C223.141 101.075 225.001 101.63 226.261 102.74C227.521 103.82 228.151 105.365 228.151 107.375V109.85H225.001V107.375C225.001 104.975 223.576 103.775 220.726 103.775C217.876 103.775 216.451 104.975 216.451 107.375V125.375C216.451 126.515 216.691 127.4 217.171 128.03C217.651 128.66 218.521 128.975 219.781 128.975C221.071 128.975 222.256 128.465 223.336 127.445C224.446 126.425 225.001 125.435 225.001 124.475V118.85H219.961Z" fill="black"/>
<path fill-rule="evenodd" clip-rule="evenodd" d="M250 161.5H150V156.5H250V161.5ZM150 176.5H250V181.5H150V176.5ZM250 202.5H150V197.5H250V202.5Z" fill="black"/>
<path fill-rule="evenodd" clip-rule="evenodd" d="M250 242.5H150V237.5H250V242.5ZM150 257.5H250V262.5H150V257.5ZM250 283.5H150V278.5H250V283.5Z" fill="black"/>
<path d="M338 296C338 325.823 313.823 350 284 350C254.177 350 230 325.823 230 296C230 266.177 254.177 242 284 242C313.823 242 338 266.177 338 296Z" fill="#3D5AC1"/>
<path fill-rule="evenodd" clip-rule="evenodd" d="M284 345C311.062 345 333 323.062 333 296C333 268.938 311.062 247 284 247C256.938 247 235 268.938 235 296C235 323.062 256.938 345 284 345ZM284 350C313.823 350 338 325.823 338 296C338 266.177 313.823 242 284 242C254.177 242 230 266.177 230 296C230 325.823 254.177 350 284 350Z" fill="black"/>
<path fill-rule="evenodd" clip-rule="evenodd" d="M315.768 274.232C316.744 275.209 316.744 276.791 315.768 277.768L273.5 320.036L252.232 298.768C251.256 297.791 251.256 296.209 252.232 295.232C253.209 294.256 254.791 294.256 255.768 295.232L273.5 312.964L312.232 274.232C313.209 273.256 314.791 273.256 315.768 274.232Z" fill="white"/>
</svg>
