<svg width="342" height="314" viewBox="0 0 342 314" fill="none" xmlns="http://www.w3.org/2000/svg">
<circle cx="170.963" cy="143" r="142" transform="rotate(-13.4905 170.963 143)" fill="#E88282"/>
<path d="M156.751 183.607L173.251 167.107L189.751 183.607" stroke="black" stroke-width="5" stroke-linecap="round"/>
<path d="M71.572 65.2042C54.8927 86.6966 44.9629 113.689 44.9629 143C44.9629 213.14 101.823 270 171.963 270C242.103 270 298.963 213.14 298.963 143C298.963 72.8598 242.103 16 171.963 16C149.801 16 128.964 21.6767 110.829 31.6554" stroke="black" stroke-width="5"/>
<path d="M125.003 152.077C120.648 158.511 114.15 171.829 122.993 173.629C134.047 175.877 127.65 158.519 125.003 152.077Z" stroke="black" stroke-width="5" stroke-linecap="round"/>
<circle cx="126.251" cy="142.607" r="10" fill="black"/>
<circle cx="219.251" cy="142.607" r="10" fill="black"/>
</svg>
