<svg width="400" height="400" viewBox="0 0 400 400" fill="none" xmlns="http://www.w3.org/2000/svg">
<path fill-rule="evenodd" clip-rule="evenodd" d="M231.793 126.86C244.728 124.488 258.779 126.544 272.82 130.935L274.574 131.484V232.068L270.782 229.777C257.458 221.731 244.501 217.974 232.828 219.146C221.247 220.31 210.594 226.356 201.809 238.612L199.734 241.506L197.717 238.572C189.158 226.127 178.521 220.095 167.178 218.985C155.748 217.867 143.26 221.717 131.085 229.726L127.211 232.274V131.442L129.016 130.92C141.909 127.192 155.382 125.142 168.018 127.343C179.84 129.403 190.808 135.167 199.775 146.464C208.728 135.144 219.7 129.078 231.793 126.86ZM197.277 151.434C188.826 139.874 178.43 134.233 167.16 132.269C156.14 130.349 144.16 131.928 132.211 135.213V223.139C143.874 216.299 156.064 212.874 167.665 214.009C178.608 215.079 188.784 220.186 197.277 229.861V151.434ZM202.277 230.047C210.927 220.437 221.16 215.293 232.329 214.172C244.234 212.976 256.923 216.377 269.574 223.312V135.172C256.571 131.295 244.02 129.701 232.695 131.778C221.163 133.893 210.744 139.84 202.277 151.434V230.047Z" fill="black"/>
<path fill-rule="evenodd" clip-rule="evenodd" d="M116.5 140.339H129.711C131.091 140.339 132.211 141.459 132.211 142.839C132.211 144.22 131.091 145.339 129.711 145.339H121.5V236.386H127.211V228.07C127.211 226.689 128.33 225.57 129.711 225.57C131.091 225.57 132.211 226.689 132.211 228.07V236.386H278.5V145.339H272.967C271.586 145.339 270.467 144.22 270.467 142.839C270.467 141.459 271.586 140.339 272.967 140.339H283.5V241.386H116.5V140.339Z" fill="black"/>
<path fill-rule="evenodd" clip-rule="evenodd" d="M141.46 232.805C137.584 234.271 134.992 235.91 133.711 237.192C132.735 238.169 131.152 238.169 130.175 237.193C129.198 236.217 129.198 234.634 130.174 233.658C132.155 231.675 135.476 229.723 139.691 228.128C143.957 226.514 149.31 225.202 155.505 224.611C167.642 223.453 183.064 225.058 199.952 232.652C213.979 225.724 229.568 224.029 242.88 224.917C249.721 225.373 256.013 226.515 261.251 228.013C264.394 228.911 267.218 229.955 269.574 231.089V227.233C269.574 225.852 270.694 224.733 272.074 224.733C273.455 224.733 274.574 225.852 274.574 227.233V240.336L270.603 237.446C268.493 235.91 264.805 234.229 259.876 232.82C254.993 231.424 249.052 230.34 242.547 229.906C229.513 229.036 214.429 230.789 201.154 237.646L200.066 238.208L198.955 237.693C182.465 230.05 167.526 228.486 155.98 229.588C150.2 230.14 145.285 231.358 141.46 232.805Z" fill="black"/>
<path d="M129.711 227.637V133.321C155.149 125.966 181.926 125.534 199.777 150.627C217.628 125.534 244.405 124.668 272.074 133.321V227.637C244.851 211.197 218.074 211.63 199.777 237.155C181.926 211.197 154.702 211.197 129.711 227.637Z" fill="#BF795B"/>
<path fill-rule="evenodd" clip-rule="evenodd" d="M231.793 126.86C244.728 124.488 258.779 126.544 272.82 130.935L274.574 131.484V232.068L270.782 229.777C257.458 221.731 244.501 217.974 232.828 219.146C221.247 220.31 210.594 226.356 201.809 238.612L199.734 241.506L197.717 238.572C189.158 226.127 178.521 220.095 167.178 218.985C155.748 217.867 143.26 221.717 131.085 229.726L127.211 232.274V131.442L129.016 130.92C141.909 127.192 155.382 125.142 168.018 127.343C179.84 129.403 190.808 135.167 199.775 146.464C208.728 135.144 219.7 129.078 231.793 126.86ZM197.277 151.434C188.826 139.874 178.43 134.233 167.16 132.269C156.14 130.349 144.16 131.928 132.211 135.213V223.139C143.874 216.299 156.064 212.874 167.665 214.009C178.608 215.079 188.784 220.186 197.277 229.861V151.434ZM202.277 230.047C210.927 220.437 221.16 215.293 232.329 214.172C244.234 212.976 256.923 216.377 269.574 223.312V135.172C256.571 131.295 244.02 129.701 232.695 131.778C221.163 133.893 210.744 139.84 202.277 151.434V230.047Z" fill="#BF795B"/>
<path fill-rule="evenodd" clip-rule="evenodd" d="M116.5 140.339H129.711C131.091 140.339 132.211 141.459 132.211 142.839C132.211 144.22 131.091 145.339 129.711 145.339H121.5V236.386H127.211V228.07C127.211 226.689 128.33 225.57 129.711 225.57C131.091 225.57 132.211 226.689 132.211 228.07V236.386H278.5V145.339H272.967C271.586 145.339 270.467 144.22 270.467 142.839C270.467 141.459 271.586 140.339 272.967 140.339H283.5V241.386H116.5V140.339Z" fill="black"/>
<path fill-rule="evenodd" clip-rule="evenodd" d="M141.46 232.805C137.584 234.271 134.992 235.91 133.711 237.192C132.735 238.169 131.152 238.169 130.175 237.193C129.198 236.217 129.198 234.634 130.174 233.658C132.155 231.675 135.476 229.723 139.691 228.128C143.957 226.514 149.31 225.202 155.505 224.611C167.642 223.453 183.064 225.058 199.952 232.652C213.979 225.724 229.568 224.029 242.88 224.917C249.721 225.373 256.013 226.515 261.251 228.013C264.394 228.911 267.218 229.955 269.574 231.089V227.233C269.574 225.852 270.694 224.733 272.074 224.733C273.455 224.733 274.574 225.852 274.574 227.233V240.336L270.603 237.446C268.493 235.91 264.805 234.229 259.876 232.82C254.993 231.424 249.052 230.34 242.547 229.906C229.513 229.036 214.429 230.789 201.154 237.646L200.066 238.208L198.955 237.693C182.465 230.05 167.526 228.486 155.98 229.588C150.2 230.14 145.285 231.358 141.46 232.805Z" fill="black"/>
<path fill-rule="evenodd" clip-rule="evenodd" d="M281 235.521C282.381 235.521 283.5 236.64 283.5 238.021V253.5H116.5V240.617C116.5 239.236 117.619 238.117 119 238.117C120.381 238.117 121.5 239.236 121.5 240.617V248.5H278.5V238.021C278.5 236.64 279.619 235.521 281 235.521Z" fill="black"/>
<path d="M220.659 211.237C221.177 211.112 221.503 211.307 221.636 211.823L221.691 212.036C221.824 212.553 221.631 212.874 221.113 213L216.176 214.196C215.8 214.287 215.448 214.228 215.119 214.02L214.337 213.551C214.011 213.355 213.8 213.07 213.703 212.696L210.823 201.521C210.69 201.005 210.882 200.684 211.4 200.558L211.614 200.506C212.133 200.381 212.458 200.576 212.591 201.093L215.327 211.706C215.461 212.222 215.786 212.418 216.305 212.292L220.659 211.237Z" fill="white"/>
<path d="M229.511 209.103C230.041 209.04 230.339 209.273 230.406 209.802L230.434 210.02C230.501 210.549 230.27 210.845 229.741 210.909L224.696 211.51C224.312 211.556 223.97 211.456 223.67 211.21L222.954 210.651C222.656 210.418 222.482 210.109 222.434 209.726L220.983 198.298C220.916 197.769 221.147 197.472 221.676 197.409L227.932 196.663C228.462 196.6 228.76 196.833 228.827 197.362L228.855 197.58C228.922 198.109 228.691 198.405 228.161 198.468L223.693 199.001C223.163 199.065 222.932 199.361 222.999 199.89L223.337 202.549C223.404 203.078 223.702 203.311 224.232 203.247L228.7 202.714C229.23 202.651 229.528 202.884 229.595 203.413L229.623 203.631C229.69 204.161 229.459 204.457 228.93 204.52L224.461 205.053C223.932 205.116 223.7 205.412 223.768 205.941L224.148 208.937C224.215 209.466 224.513 209.699 225.043 209.636L229.511 209.103Z" fill="white"/>
<path d="M240.286 208.324C240.286 208.71 240.153 209.044 239.886 209.324L239.246 209.964C238.98 210.23 238.653 210.364 238.266 210.364H233.166C232.633 210.364 232.366 210.097 232.366 209.564V196.804C232.366 196.27 232.633 196.004 233.166 196.004H238.266C238.653 196.004 238.98 196.144 239.246 196.424L239.886 197.064C240.153 197.33 240.286 197.657 240.286 198.044V208.324ZM234.186 207.744C234.186 208.277 234.453 208.544 234.986 208.544H237.666C238.2 208.544 238.466 208.277 238.466 207.744V198.624C238.466 198.09 238.2 197.824 237.666 197.824H234.986C234.453 197.824 234.186 198.09 234.186 198.624V207.744Z" fill="white"/>
<path d="M250.019 202.534C249.49 202.47 249.259 202.174 249.326 201.645L249.573 199.701C249.64 199.172 249.409 198.876 248.879 198.812L246.198 198.493C245.668 198.429 245.37 198.662 245.303 199.191L244.154 208.239C244.087 208.768 244.318 209.064 244.848 209.127L247.529 209.447C248.059 209.51 248.357 209.277 248.424 208.748L248.691 206.645C248.758 206.116 248.527 205.82 247.997 205.757L247.521 205.7C246.991 205.637 246.76 205.341 246.827 204.811L246.855 204.593C246.922 204.064 247.22 203.831 247.75 203.894L250.014 204.164C250.544 204.228 250.775 204.524 250.708 205.053L250.138 209.537C250.09 209.92 249.915 210.235 249.615 210.481L248.899 211.041C248.601 211.274 248.26 211.367 247.876 211.321L244.043 210.864C243.646 210.817 243.332 210.645 243.1 210.349L242.545 209.638C242.314 209.342 242.223 209.002 242.272 208.618L243.569 198.4C243.617 198.017 243.791 197.709 244.089 197.476L244.828 196.899C245.126 196.666 245.467 196.573 245.851 196.618L249.684 197.076C250.068 197.121 250.375 197.299 250.604 197.608L251.159 198.319C251.39 198.615 251.482 198.955 251.433 199.339L251.113 201.858C251.046 202.388 250.748 202.62 250.218 202.557L250.019 202.534Z" fill="white"/>
<path d="M258.934 211.877C259.453 212.003 259.645 212.324 259.512 212.84L259.457 213.053C259.324 213.569 258.998 213.765 258.48 213.639L253.543 212.443C253.167 212.352 252.884 212.14 252.695 211.806L252.233 211.035C252.04 210.714 251.992 210.367 252.089 209.992L254.965 198.837C255.098 198.32 255.423 198.125 255.942 198.251L262.065 199.734C262.583 199.86 262.776 200.181 262.642 200.697L262.588 200.91C262.454 201.426 262.129 201.622 261.61 201.496L257.237 200.437C256.719 200.311 256.393 200.507 256.26 201.023L255.591 203.618C255.457 204.135 255.65 204.456 256.168 204.581L260.542 205.641C261.06 205.766 261.253 206.087 261.12 206.604L261.065 206.817C260.932 207.333 260.606 207.529 260.088 207.403L255.714 206.344C255.196 206.218 254.87 206.413 254.737 206.93L253.983 209.854C253.85 210.371 254.042 210.692 254.561 210.817L258.934 211.877Z" fill="white"/>
<path d="M220.895 194.694C221.031 195.21 220.84 195.532 220.323 195.66L220.109 195.713C219.591 195.841 219.265 195.647 219.129 195.132L218.828 193.991C218.774 193.784 218.696 193.618 218.594 193.492C218.488 193.354 218.334 193.241 218.132 193.153L214.779 191.573C214.587 191.47 214.406 191.439 214.238 191.48C214.095 191.516 213.994 191.603 213.934 191.741C213.887 191.876 213.891 192.047 213.945 192.253L214.974 196.16C215.11 196.676 214.919 196.998 214.401 197.126L214.188 197.179C213.67 197.307 213.343 197.113 213.207 196.597L209.947 184.22C209.811 183.704 210.002 183.382 210.52 183.254L210.734 183.201C211.251 183.073 211.578 183.267 211.714 183.782L212.824 187.998C212.879 188.205 212.962 188.363 213.073 188.473C213.182 188.569 213.3 188.602 213.43 188.57C213.585 188.531 213.734 188.391 213.878 188.15L215.944 184.61C216.131 184.275 216.176 183.921 216.077 183.547L215.869 182.754C215.733 182.238 215.924 181.916 216.441 181.788L216.655 181.735C217.173 181.607 217.499 181.801 217.635 182.317L218.033 183.825C218.131 184.199 218.086 184.553 217.899 184.888L215.508 189.003C215.384 189.212 215.348 189.413 215.399 189.607C215.453 189.813 215.606 189.974 215.857 190.091L219.675 191.865C219.877 191.952 220.031 192.065 220.136 192.204C220.238 192.33 220.316 192.496 220.371 192.702L220.895 194.694Z" fill="white"/>
<path d="M224.374 193.555C224.44 194.084 224.209 194.38 223.679 194.442L223.46 194.468C222.931 194.53 222.633 194.297 222.566 193.768L220.978 181.087C220.912 180.558 221.144 180.262 221.673 180.199L222.07 180.153C222.507 180.101 222.837 180.264 223.059 180.64L227.179 187.626C227.263 187.764 227.358 187.874 227.462 187.956C227.578 188.023 227.682 188.051 227.775 188.04C227.894 188.026 227.98 187.962 228.033 187.848C228.098 187.72 228.117 187.55 228.09 187.338L227.215 180.353C227.149 179.823 227.38 179.528 227.91 179.465L228.129 179.439C228.658 179.377 228.956 179.611 229.023 180.14L230.611 192.821C230.677 193.35 230.446 193.646 229.916 193.708L229.697 193.734C229.26 193.785 228.931 193.623 228.709 193.246L224.365 185.924C224.193 185.622 224.001 185.483 223.789 185.508C223.67 185.522 223.578 185.594 223.514 185.722C223.449 185.85 223.43 186.02 223.457 186.232L224.374 193.555Z" fill="white"/>
<path d="M240.987 191.069C240.984 191.456 240.848 191.788 240.579 192.066L239.934 192.701C239.665 192.965 239.337 193.096 238.95 193.092L235.091 193.06C234.704 193.057 234.378 192.921 234.114 192.652L233.459 191.986C233.195 191.717 233.064 191.389 233.068 191.003L233.153 180.683C233.156 180.296 233.292 179.964 233.561 179.687L234.206 179.052C234.475 178.788 234.803 178.657 235.19 178.66L239.069 178.693C239.456 178.696 239.782 178.839 240.046 179.121L240.681 179.766C240.945 180.035 241.076 180.363 241.072 180.75L240.987 191.069ZM238.366 191.267C238.899 191.272 239.168 191.007 239.172 190.474L239.248 181.314C239.252 180.781 238.988 180.512 238.454 180.508L235.774 180.485C235.241 180.481 234.972 180.745 234.968 181.278L234.892 190.438C234.888 190.971 235.152 191.24 235.686 191.245L238.366 191.267Z" fill="white"/>
<path d="M251.489 193.809C251.376 194.305 251.062 194.517 250.547 194.446L250.269 194.407C249.82 194.345 249.548 194.092 249.451 193.648L248.554 189.304C248.487 188.932 248.342 188.73 248.117 188.699C247.919 188.672 247.721 188.826 247.524 189.162L245.429 193.092C245.209 193.492 244.874 193.661 244.425 193.599L244.108 193.555C243.593 193.484 243.352 193.195 243.387 192.688L243.979 179.869C243.991 179.602 244.074 179.405 244.227 179.278C244.381 179.151 244.59 179.106 244.854 179.142L245.072 179.172C245.56 179.24 245.801 179.529 245.793 180.039L245.536 187.01C245.52 187.209 245.543 187.374 245.605 187.504C245.682 187.622 245.78 187.689 245.898 187.706C245.991 187.719 246.09 187.685 246.196 187.606C246.302 187.526 246.4 187.412 246.489 187.262L247.542 185.329C247.763 184.928 248.097 184.759 248.546 184.821L248.804 184.857C249.253 184.919 249.526 185.172 249.622 185.616L250.081 187.719C250.124 187.886 250.185 188.022 250.263 188.128C250.342 188.233 250.428 188.292 250.52 188.304C250.639 188.321 250.746 188.282 250.841 188.187C250.951 188.081 251.027 187.93 251.069 187.734L252.826 181.012C252.966 180.52 253.28 180.307 253.769 180.375L253.987 180.405C254.251 180.442 254.439 180.542 254.549 180.705C254.66 180.868 254.683 181.08 254.618 181.34L251.489 193.809Z" fill="white"/>
<path d="M260.082 189.925C259.939 190.439 259.61 190.629 259.094 190.494L255.514 189.562C254.997 189.427 254.811 189.103 254.953 188.589L255.033 188.3C255.176 187.786 255.505 187.596 256.021 187.731L259.602 188.663C260.118 188.798 260.305 189.122 260.162 189.636L260.082 189.925Z" fill="white"/>
<path d="M190.15 114.48C190.95 114.48 191.35 114.88 191.35 115.68V116.01C191.35 116.81 190.95 117.21 190.15 117.21H182.53C181.95 117.21 181.46 117 181.06 116.58L180.1 115.62C179.7 115.22 179.5 114.73 179.5 114.15V96.87C179.5 96.07 179.9 95.67 180.7 95.67H190.15C190.95 95.67 191.35 96.07 191.35 96.87V97.2C191.35 98 190.95 98.4 190.15 98.4H183.4C182.6 98.4 182.2 98.8 182.2 99.6V103.62C182.2 104.42 182.6 104.82 183.4 104.82H190.15C190.95 104.82 191.35 105.22 191.35 106.02V106.35C191.35 107.15 190.95 107.55 190.15 107.55H183.4C182.6 107.55 182.2 107.95 182.2 108.75V113.28C182.2 114.08 182.6 114.48 183.4 114.48H190.15Z" fill="black"/>
<path d="M204.411 102.72C203.611 102.72 203.211 102.32 203.211 101.52V99.15C203.211 98.35 202.811 97.95 202.011 97.95H197.991C197.191 97.95 196.791 98.35 196.791 99.15V103.92C196.791 104.72 197.191 105.12 197.991 105.12H202.911C203.491 105.12 203.981 105.32 204.381 105.72L205.341 106.68C205.741 107.08 205.941 107.57 205.941 108.15V114.21C205.941 114.79 205.741 115.29 205.341 115.71L204.381 116.67C203.981 117.07 203.491 117.27 202.911 117.27H197.121C196.541 117.27 196.051 117.07 195.651 116.67L194.661 115.68C194.261 115.28 194.061 114.79 194.061 114.21V111.27C194.061 110.47 194.461 110.07 195.261 110.07H195.591C196.391 110.07 196.791 110.47 196.791 111.27V113.34C196.791 114.14 197.191 114.54 197.991 114.54H202.011C202.811 114.54 203.211 114.14 203.211 113.34V109.02C203.211 108.22 202.811 107.82 202.011 107.82H197.121C196.521 107.82 196.021 107.62 195.621 107.22L194.661 106.26C194.261 105.86 194.061 105.37 194.061 104.79V98.28C194.061 97.7 194.261 97.2 194.661 96.78L195.621 95.82C196.021 95.42 196.511 95.22 197.091 95.22H202.911C203.491 95.22 203.981 95.43 204.381 95.85L205.341 96.81C205.741 97.21 205.941 97.7 205.941 98.28V101.52C205.941 102.32 205.541 102.72 204.741 102.72H204.411Z" fill="black"/>
<path d="M219.323 103.8C218.523 103.8 218.123 103.4 218.123 102.6V99.66C218.123 98.86 217.723 98.46 216.923 98.46H212.873C212.073 98.46 211.673 98.86 211.673 99.66V113.34C211.673 114.14 212.073 114.54 212.873 114.54H216.923C217.723 114.54 218.123 114.14 218.123 113.34V110.16C218.123 109.36 217.723 108.96 216.923 108.96H216.203C215.403 108.96 215.003 108.56 215.003 107.76V107.43C215.003 106.63 215.403 106.23 216.203 106.23H219.623C220.423 106.23 220.823 106.63 220.823 107.43V114.21C220.823 114.79 220.623 115.29 220.223 115.71L219.263 116.67C218.863 117.07 218.373 117.27 217.793 117.27H212.003C211.403 117.27 210.903 117.07 210.503 116.67L209.543 115.71C209.143 115.31 208.943 114.82 208.943 114.24V98.79C208.943 98.21 209.143 97.72 209.543 97.32L210.533 96.33C210.933 95.93 211.423 95.73 212.003 95.73H217.793C218.373 95.73 218.863 95.94 219.263 96.36L220.223 97.32C220.623 97.72 220.823 98.21 220.823 98.79V102.6C220.823 103.4 220.423 103.8 219.623 103.8H219.323Z" fill="black"/>
<path fill-rule="evenodd" clip-rule="evenodd" d="M355 56H45V287H355V56ZM45 51C42.2386 51 40 53.2386 40 56V287C40 289.761 42.2386 292 45 292H355C357.761 292 360 289.761 360 287V56C360 53.2386 357.761 51 355 51H45Z" fill="black"/>
<path fill-rule="evenodd" clip-rule="evenodd" d="M333 72L67 72V270H333V72ZM67 67C64.2386 67 62 69.2386 62 72V270C62 272.761 64.2386 275 67 275H333C335.761 275 338 272.761 338 270V72C338 69.2386 335.761 67 333 67H67Z" fill="black"/>
<path fill-rule="evenodd" clip-rule="evenodd" d="M208 292V342H262C266.142 342 269.5 345.358 269.5 349.5C269.5 353.642 266.142 357 262 357H140.5C136.358 357 133 353.642 133 349.5C133 345.358 136.358 342 140.5 342H193V292H208Z" fill="black"/>
</svg>
