<svg width="400" height="400" viewBox="0 0 400 400" fill="none" xmlns="http://www.w3.org/2000/svg">
<path fill-rule="evenodd" clip-rule="evenodd" d="M133 225C157.853 225 178 204.853 178 180C178 155.147 157.853 135 133 135C108.147 135 88 155.147 88 180C88 204.853 108.147 225 133 225ZM133 230C160.614 230 183 207.614 183 180C183 152.386 160.614 130 133 130C105.386 130 83 152.386 83 180C83 207.614 105.386 230 133 230Z" fill="black"/>
<path fill-rule="evenodd" clip-rule="evenodd" d="M182.219 247.168L137.506 340.103C135.689 343.879 130.311 343.879 128.494 340.103L83.7811 247.168C82.1839 243.848 84.6029 240 88.2867 240H177.713C181.397 240 183.816 243.848 182.219 247.168ZM142.011 342.27C138.378 349.823 127.622 349.823 123.989 342.27L79.2754 249.336C76.0812 242.697 80.9192 235 88.2867 235H177.713C185.081 235 189.919 242.697 186.725 249.336L142.011 342.27Z" fill="black"/>
<path fill-rule="evenodd" clip-rule="evenodd" d="M152.5 240C154 240 156 240 155 240L133.051 269.616L110 240C109 240 110.5 240 112 240C113.5 240 115 240 116 240L132.949 261.384L149 240C150.5 240 151 240 152.5 240Z" fill="black"/>
<path d="M113 183C113 185.761 110.761 188 108 188C105.239 188 103 185.761 103 183C103 180.239 105.239 178 108 178C110.761 178 113 180.239 113 183Z" fill="black"/>
<path d="M163 183C163 185.761 160.761 188 158 188C155.239 188 153 185.761 153 183C153 180.239 155.239 178 158 178C160.761 178 163 180.239 163 183Z" fill="black"/>
<path fill-rule="evenodd" clip-rule="evenodd" d="M114.547 193.966C115.67 193.163 117.232 193.423 118.034 194.547C118.788 195.602 120.553 196.71 123.424 197.535C126.198 198.331 129.614 198.75 133.125 198.75C136.633 198.75 140.122 198.332 143.038 197.528C146.03 196.702 148.082 195.563 149.102 194.373C150 193.325 151.579 193.203 152.627 194.102C153.675 195 153.797 196.579 152.898 197.627C150.918 199.937 147.72 201.423 144.368 202.347C140.94 203.293 136.992 203.75 133.125 203.75C129.261 203.75 125.364 203.294 122.044 202.34C118.822 201.415 115.712 199.898 113.966 197.453C113.163 196.33 113.423 194.768 114.547 193.966Z" fill="black"/>
<path fill-rule="evenodd" clip-rule="evenodd" d="M266 225C290.853 225 311 204.853 311 180C311 155.147 290.853 135 266 135C241.147 135 221 155.147 221 180C221 204.853 241.147 225 266 225ZM266 230C293.614 230 316 207.614 316 180C316 152.386 293.614 130 266 130C238.386 130 216 152.386 216 180C216 207.614 238.386 230 266 230Z" fill="black"/>
<path fill-rule="evenodd" clip-rule="evenodd" d="M315.219 247.168L270.506 340.103C268.689 343.879 263.311 343.879 261.494 340.103L216.781 247.168C215.184 243.848 217.603 240 221.287 240H310.713C314.397 240 316.816 243.848 315.219 247.168ZM275.011 342.27C271.378 349.823 260.622 349.823 256.989 342.27L212.275 249.336C209.081 242.697 213.919 235 221.287 235H310.713C318.081 235 322.919 242.697 319.725 249.336L275.011 342.27Z" fill="black"/>
<path fill-rule="evenodd" clip-rule="evenodd" d="M285 240C286.5 240 289 240 288 240L266.051 269.616L243 240C241.5 240 244 240 245.5 240C247 240 247.5 240 249 240L265.949 261.384L282 240C284 240 283.5 240 285 240Z" fill="black"/>
<path d="M246 182C246 184.761 243.761 187 241 187C238.239 187 236 184.761 236 182C236 179.239 238.239 177 241 177C243.761 177 246 179.239 246 182Z" fill="black"/>
<path d="M296 182C296 184.761 293.761 187 291 187C288.239 187 286 184.761 286 182C286 179.239 288.239 177 291 177C293.761 177 296 179.239 296 182Z" fill="black"/>
<path fill-rule="evenodd" clip-rule="evenodd" d="M247.547 192.966C248.67 192.163 250.232 192.423 251.034 193.547C251.788 194.602 253.553 195.71 256.424 196.535C259.198 197.331 262.614 197.75 266.125 197.75C269.633 197.75 273.122 197.332 276.038 196.528C279.03 195.702 281.082 194.563 282.102 193.373C283 192.325 284.579 192.203 285.627 193.102C286.675 194 286.797 195.579 285.898 196.627C283.918 198.937 280.72 200.423 277.368 201.347C273.94 202.293 269.992 202.75 266.125 202.75C262.261 202.75 258.364 202.294 255.044 201.34C251.822 200.415 248.712 198.898 246.966 196.453C246.163 195.33 246.423 193.768 247.547 192.966Z" fill="black"/>
<path d="M36 40C36 34.4772 40.4772 30 46 30H180C185.523 30 190 34.4772 190 40V83C190 88.5228 185.523 93 180 93H46C40.4772 93 36 88.5228 36 83V40Z" fill="#BF795B"/>
<path fill-rule="evenodd" clip-rule="evenodd" d="M180 35H46C43.2386 35 41 37.2386 41 40V83C41 85.7614 43.2386 88 46 88H180C182.761 88 185 85.7614 185 83V40C185 37.2386 182.761 35 180 35ZM46 30C40.4772 30 36 34.4772 36 40V83C36 88.5228 40.4772 93 46 93H180C185.523 93 190 88.5228 190 83V40C190 34.4772 185.523 30 180 30H46Z" fill="black"/>
<path d="M119 62C119 65.3137 116.314 68 113 68C109.686 68 107 65.3137 107 62C107 58.6863 109.686 56 113 56C116.314 56 119 58.6863 119 62Z" fill="white"/>
<path d="M81 62C81 65.3137 78.3137 68 75 68C71.6863 68 69 65.3137 69 62C69 58.6863 71.6863 56 75 56C78.3137 56 81 58.6863 81 62Z" fill="white"/>
<path d="M157 61C157 64.3137 154.314 67 151 67C147.686 67 145 64.3137 145 61C145 57.6863 147.686 55 151 55C154.314 55 157 57.6863 157 61Z" fill="white"/>
<path d="M153 60C153 54.4771 157.477 50 163 50H324C329.523 50 334 54.4772 334 60V114C334 119.523 329.523 124 324 124H163C157.477 124 153 119.523 153 114V60Z" fill="#BF795B"/>
<path fill-rule="evenodd" clip-rule="evenodd" d="M324 55H163C160.239 55 158 57.2386 158 60V114C158 116.761 160.239 119 163 119H324C326.761 119 329 116.761 329 114V60C329 57.2386 326.761 55 324 55ZM163 50C157.477 50 153 54.4771 153 60V114C153 119.523 157.477 124 163 124H324C329.523 124 334 119.523 334 114V60C334 54.4772 329.523 50 324 50H163Z" fill="black"/>
<path d="M250 87C250 90.3137 247.314 93 244 93C240.686 93 238 90.3137 238 87C238 83.6863 240.686 81 244 81C247.314 81 250 83.6863 250 87Z" fill="white"/>
<path d="M212 87C212 90.3137 209.314 93 206 93C202.686 93 200 90.3137 200 87C200 83.6863 202.686 81 206 81C209.314 81 212 83.6863 212 87Z" fill="white"/>
<path d="M288 86C288 89.3137 285.314 92 282 92C278.686 92 276 89.3137 276 86C276 82.6863 278.686 80 282 80C285.314 80 288 82.6863 288 86Z" fill="white"/>
<path fill-rule="evenodd" clip-rule="evenodd" d="M133 225C157.853 225 178 204.853 178 180C178 155.147 157.853 135 133 135C108.147 135 88 155.147 88 180C88 204.853 108.147 225 133 225ZM133 230C160.614 230 183 207.614 183 180C183 152.386 160.614 130 133 130C105.386 130 83 152.386 83 180C83 207.614 105.386 230 133 230Z" fill="black"/>
<path fill-rule="evenodd" clip-rule="evenodd" d="M182.219 247.168L137.506 340.103C135.689 343.879 130.311 343.879 128.494 340.103L83.7811 247.168C82.1839 243.848 84.6029 240 88.2867 240H177.713C181.397 240 183.816 243.848 182.219 247.168ZM142.011 342.27C138.378 349.823 127.622 349.823 123.989 342.27L79.2754 249.336C76.0812 242.697 80.9192 235 88.2867 235H177.713C185.081 235 189.919 242.697 186.725 249.336L142.011 342.27Z" fill="black"/>
<path fill-rule="evenodd" clip-rule="evenodd" d="M152.5 240C154 240 156 240 155 240L133.051 269.616L110 240C109 240 110.5 240 112 240C113.5 240 115 240 116 240L132.949 261.384L149 240C150.5 240 151 240 152.5 240Z" fill="black"/>
<path d="M113 183C113 185.761 110.761 188 108 188C105.239 188 103 185.761 103 183C103 180.239 105.239 178 108 178C110.761 178 113 180.239 113 183Z" fill="black"/>
<path d="M163 183C163 185.761 160.761 188 158 188C155.239 188 153 185.761 153 183C153 180.239 155.239 178 158 178C160.761 178 163 180.239 163 183Z" fill="black"/>
<path fill-rule="evenodd" clip-rule="evenodd" d="M114.547 193.966C115.67 193.163 117.232 193.423 118.034 194.547C118.788 195.602 120.553 196.71 123.424 197.535C126.198 198.331 129.614 198.75 133.125 198.75C136.633 198.75 140.122 198.332 143.038 197.528C146.03 196.702 148.082 195.563 149.102 194.373C150 193.325 151.579 193.203 152.627 194.102C153.675 195 153.797 196.579 152.898 197.627C150.918 199.937 147.72 201.423 144.368 202.347C140.94 203.293 136.992 203.75 133.125 203.75C129.261 203.75 125.364 203.294 122.044 202.34C118.822 201.415 115.712 199.898 113.966 197.453C113.163 196.33 113.423 194.768 114.547 193.966Z" fill="black"/>
<path fill-rule="evenodd" clip-rule="evenodd" d="M266 225C290.853 225 311 204.853 311 180C311 155.147 290.853 135 266 135C241.147 135 221 155.147 221 180C221 204.853 241.147 225 266 225ZM266 230C293.614 230 316 207.614 316 180C316 152.386 293.614 130 266 130C238.386 130 216 152.386 216 180C216 207.614 238.386 230 266 230Z" fill="black"/>
<path fill-rule="evenodd" clip-rule="evenodd" d="M315.219 247.168L270.506 340.103C268.689 343.879 263.311 343.879 261.494 340.103L216.781 247.168C215.184 243.848 217.603 240 221.287 240H310.713C314.397 240 316.816 243.848 315.219 247.168ZM275.011 342.27C271.378 349.823 260.622 349.823 256.989 342.27L212.275 249.336C209.081 242.697 213.919 235 221.287 235H310.713C318.081 235 322.919 242.697 319.725 249.336L275.011 342.27Z" fill="black"/>
<path fill-rule="evenodd" clip-rule="evenodd" d="M285 240C286.5 240 289 240 288 240L266.051 269.616L243 240C241.5 240 244 240 245.5 240C247 240 247.5 240 249 240L265.949 261.384L282 240C284 240 283.5 240 285 240Z" fill="black"/>
<path d="M246 182C246 184.761 243.761 187 241 187C238.239 187 236 184.761 236 182C236 179.239 238.239 177 241 177C243.761 177 246 179.239 246 182Z" fill="black"/>
<path d="M296 182C296 184.761 293.761 187 291 187C288.239 187 286 184.761 286 182C286 179.239 288.239 177 291 177C293.761 177 296 179.239 296 182Z" fill="black"/>
<path fill-rule="evenodd" clip-rule="evenodd" d="M247.547 192.966C248.67 192.163 250.232 192.423 251.034 193.547C251.788 194.602 253.553 195.71 256.424 196.535C259.198 197.331 262.614 197.75 266.125 197.75C269.633 197.75 273.122 197.332 276.038 196.528C279.03 195.702 281.082 194.563 282.102 193.373C283 192.325 284.579 192.203 285.627 193.102C286.675 194 286.797 195.579 285.898 196.627C283.918 198.937 280.72 200.423 277.368 201.347C273.94 202.293 269.992 202.75 266.125 202.75C262.261 202.75 258.364 202.294 255.044 201.34C251.822 200.415 248.712 198.898 246.966 196.453C246.163 195.33 246.423 193.768 247.547 192.966Z" fill="black"/>
<path d="M36 40C36 34.4772 40.4772 30 46 30H180C185.523 30 190 34.4772 190 40V83C190 88.5228 185.523 93 180 93H46C40.4772 93 36 88.5228 36 83V40Z" fill="#BF795B"/>
<path fill-rule="evenodd" clip-rule="evenodd" d="M180 35H46C43.2386 35 41 37.2386 41 40V83C41 85.7614 43.2386 88 46 88H180C182.761 88 185 85.7614 185 83V40C185 37.2386 182.761 35 180 35ZM46 30C40.4772 30 36 34.4772 36 40V83C36 88.5228 40.4772 93 46 93H180C185.523 93 190 88.5228 190 83V40C190 34.4772 185.523 30 180 30H46Z" fill="black"/>
<path d="M119 62C119 65.3137 116.314 68 113 68C109.686 68 107 65.3137 107 62C107 58.6863 109.686 56 113 56C116.314 56 119 58.6863 119 62Z" fill="white"/>
<path d="M81 62C81 65.3137 78.3137 68 75 68C71.6863 68 69 65.3137 69 62C69 58.6863 71.6863 56 75 56C78.3137 56 81 58.6863 81 62Z" fill="white"/>
<path d="M157 61C157 64.3137 154.314 67 151 67C147.686 67 145 64.3137 145 61C145 57.6863 147.686 55 151 55C154.314 55 157 57.6863 157 61Z" fill="white"/>
<path d="M153 60C153 54.4771 157.477 50 163 50H324C329.523 50 334 54.4772 334 60V114C334 119.523 329.523 124 324 124H163C157.477 124 153 119.523 153 114V60Z" fill="#BF795B"/>
<path fill-rule="evenodd" clip-rule="evenodd" d="M324 55H163C160.239 55 158 57.2386 158 60V114C158 116.761 160.239 119 163 119H324C326.761 119 329 116.761 329 114V60C329 57.2386 326.761 55 324 55ZM163 50C157.477 50 153 54.4771 153 60V114C153 119.523 157.477 124 163 124H324C329.523 124 334 119.523 334 114V60C334 54.4772 329.523 50 324 50H163Z" fill="black"/>
<path d="M250 87C250 90.3137 247.314 93 244 93C240.686 93 238 90.3137 238 87C238 83.6863 240.686 81 244 81C247.314 81 250 83.6863 250 87Z" fill="white"/>
<path d="M212 87C212 90.3137 209.314 93 206 93C202.686 93 200 90.3137 200 87C200 83.6863 202.686 81 206 81C209.314 81 212 83.6863 212 87Z" fill="white"/>
<path d="M288 86C288 89.3137 285.314 92 282 92C278.686 92 276 89.3137 276 86C276 82.6863 278.686 80 282 80C285.314 80 288 82.6863 288 86Z" fill="white"/>
<path d="M137 278C137 280.209 135.209 282 133 282C130.791 282 129 280.209 129 278C129 275.791 130.791 274 133 274C135.209 274 137 275.791 137 278Z" fill="black"/>
<path d="M270 278C270 280.209 268.209 282 266 282C263.791 282 262 280.209 262 278C262 275.791 263.791 274 266 274C268.209 274 270 275.791 270 278Z" fill="black"/>
<path d="M137 294C137 296.209 135.209 298 133 298C130.791 298 129 296.209 129 294C129 291.791 130.791 290 133 290C135.209 290 137 291.791 137 294Z" fill="black"/>
<path d="M270 294C270 296.209 268.209 298 266 298C263.791 298 262 296.209 262 294C262 291.791 263.791 290 266 290C268.209 290 270 291.791 270 294Z" fill="black"/>
</svg>
