<svg width="400" height="400" viewBox="0 0 400 400" fill="none" xmlns="http://www.w3.org/2000/svg">
<g clip-path="url(#clip0_10_393)">
<path fill-rule="evenodd" clip-rule="evenodd" d="M261.667 116.667C261.667 150.724 234.058 178.333 200 178.333C165.942 178.333 138.333 150.724 138.333 116.667C138.333 82.6091 165.942 55 200 55C234.058 55 261.667 82.6091 261.667 116.667ZM266.667 116.667C266.667 153.486 236.819 183.333 200 183.333C163.181 183.333 133.333 153.486 133.333 116.667C133.333 79.8477 163.181 50 200 50C236.819 50 266.667 79.8477 266.667 116.667ZM282.862 189.533L281.474 185.576C276.523 171.554 273.262 162.284 277.108 155.255C280.26 149.494 287.283 147.497 293.092 150.675C296.374 152.471 298.698 155.704 299.458 159.197C302.81 157.954 306.786 158.167 310.068 159.962C315.877 163.141 317.984 170.131 314.832 175.893C310.986 182.922 301.421 185.175 286.943 188.569L282.862 189.533ZM166.667 197.5H232.952C232.986 197.499 233.019 197.499 233.052 197.5H233.333C234.095 197.5 234.776 197.84 235.235 198.377C254.442 209.034 262.368 217.727 272.789 229.156C273.139 229.539 273.491 229.925 273.846 230.315C274.192 230.693 274.399 231.148 274.471 231.619C275.061 231.407 275.647 231.196 276.229 230.984C287.621 226.841 297.462 222.698 304.453 219.59C307.948 218.037 310.729 216.744 312.633 215.84C313.584 215.389 314.317 215.034 314.81 214.794L315.048 214.678L315.181 214.612L315.367 214.521L315.505 214.452L315.539 214.435L315.547 214.431L315.549 214.431C315.549 214.431 315.549 214.431 315.605 214.542L315.549 214.431L319.167 212.622V216.667V229.167V247.5C319.167 247.558 319.165 247.615 319.161 247.672C327.705 249.948 334 257.739 334 267C334 276.259 327.708 284.049 319.167 286.326V304.167V307.5H399C400.381 307.5 401.5 308.619 401.5 310C401.5 311.381 400.381 312.5 399 312.5H319.167V316.667V318.238L317.751 318.919L316.667 316.667C317.751 318.919 317.75 318.92 317.749 318.92L317.746 318.922L317.736 318.927L317.695 318.946L317.541 319.02C317.405 319.084 317.204 319.18 316.941 319.303C316.415 319.551 315.641 319.912 314.64 320.371C312.637 321.29 309.729 322.599 306.092 324.17C298.821 327.311 288.629 331.498 276.946 335.687C253.66 344.035 224.15 352.5 200 352.5C175.85 352.5 146.34 344.035 123.054 335.687C111.371 331.498 101.18 327.311 93.9079 324.17C90.2712 322.599 87.3627 321.29 85.3605 320.371C84.3594 319.912 83.5848 319.551 83.0589 319.303C82.7959 319.18 82.5951 319.084 82.4593 319.02L82.3046 318.946L82.2645 318.927L82.2538 318.922L82.2509 318.92C82.25 318.92 82.2495 318.919 83.3334 316.667L82.2495 318.919L80.8334 318.238V316.667V312.5H-1C-2.38071 312.5 -3.5 311.381 -3.5 310C-3.5 308.619 -2.38071 307.5 -1 307.5H80.8334V304.167V286.326C72.2919 284.049 66 276.259 66 267C66 257.739 72.2948 249.948 80.8392 247.672C80.8353 247.615 80.8334 247.558 80.8334 247.5V229.167V216.667V212.622L84.4514 214.431L84.413 214.507C84.4514 214.431 84.4515 214.431 84.4515 214.431L84.4531 214.431L84.4609 214.435L84.4946 214.452L84.6334 214.521L84.8359 214.621L84.9929 214.698L85.1903 214.794C85.6832 215.034 86.4156 215.389 87.3675 215.84C89.2712 216.744 92.0518 218.037 95.5466 219.59C102.494 222.678 112.256 226.79 123.558 230.906C133.027 221.425 148.029 206.524 165.549 197.764L166.077 197.5H166.667ZM314.167 286.999C314.111 287 314.056 287 314 287C302.954 287 294 278.046 294 267C294 255.954 302.954 247 314 247C314.056 247 314.111 247 314.167 247.001V229.167V220.646C312.266 221.543 309.666 222.745 306.484 224.16C299.413 227.302 289.462 231.492 277.938 235.683C255.705 243.767 227.368 251.949 202.5 252.473V347.469C225.278 346.916 252.883 339.002 275.259 330.98C286.819 326.835 296.91 322.689 304.11 319.58C307.709 318.026 310.583 316.731 312.555 315.827C312.874 315.68 313.17 315.544 313.441 315.418C313.598 315.346 313.746 315.277 313.886 315.212L314.167 315.081V304.167V286.999ZM85.8334 304.167V286.999L85.9099 287L86 287C97.0457 287 106 278.046 106 267C106 255.954 97.0457 247 86 247C85.9444 247 85.8889 247 85.8334 247.001V229.167V220.646C87.7339 221.543 90.3344 222.745 93.5159 224.16C100.587 227.302 110.538 231.492 122.062 235.683C144.295 243.767 172.632 251.949 197.5 252.473V347.469C174.722 346.916 147.117 339.002 124.741 330.98C113.181 326.835 103.09 322.689 95.8904 319.58C92.2914 318.026 89.4171 316.731 87.4453 315.827C86.8132 315.537 86.274 315.287 85.8334 315.081V304.167ZM128.771 232.765C150.732 240.427 177.211 247.5 200 247.5C222.288 247.5 248.106 240.735 269.774 233.27L269.09 232.519C259.278 221.758 252.01 213.788 235.35 204.186L202.268 237.268L200.5 239.036L198.732 237.268L165.232 203.768C165.189 203.725 165.148 203.68 165.108 203.635C150.484 211.6 137.738 223.828 128.771 232.765ZM171.036 202.5L200.5 231.964L229.964 202.5H171.036ZM86 282C94.2843 282 101 275.284 101 267C101 258.716 94.2843 252 86 252C77.7157 252 71 258.716 71 267C71 275.284 77.7157 282 86 282ZM329 267C329 275.284 322.284 282 314 282C305.716 282 299 275.284 299 267C299 258.716 305.716 252 314 252C322.284 252 329 258.716 329 267ZM180 140C180 142.761 177.761 145 175 145C172.239 145 170 142.761 170 140C170 137.239 172.239 135 175 135C177.761 135 180 137.239 180 140ZM225 145C227.761 145 230 142.761 230 140C230 137.239 227.761 135 225 135C222.239 135 220 137.239 220 140C220 142.761 222.239 145 225 145ZM181.547 150.966C182.67 150.163 184.232 150.423 185.034 151.547C185.788 152.602 187.553 153.71 190.424 154.535C193.198 155.331 196.614 155.75 200.125 155.75C203.633 155.75 207.122 155.332 210.038 154.528C213.03 153.702 215.082 152.563 216.102 151.373C217 150.325 218.579 150.203 219.627 151.102C220.675 152 220.797 153.579 219.898 154.627C217.918 156.937 214.72 158.423 211.368 159.347C207.94 160.293 203.992 160.75 200.125 160.75C196.261 160.75 192.364 160.294 189.044 159.34C185.822 158.415 182.712 156.898 180.966 154.453C180.163 153.33 180.423 151.768 181.547 150.966ZM219.136 68.6541C220.431 68.1768 221.869 68.8402 222.346 70.1357L232.846 98.6357C233.323 99.9313 232.66 101.369 231.364 101.846C230.069 102.323 228.631 101.66 228.154 100.364L217.654 71.8643C217.177 70.5687 217.84 69.1315 219.136 68.6541ZM181.9 68.6677C183.188 69.1649 183.829 70.6121 183.332 71.9002L172.332 100.4C171.835 101.688 170.388 102.329 169.1 101.832C167.812 101.335 167.171 99.8879 167.668 98.5998L178.668 70.0998C179.165 68.8117 180.612 68.1705 181.9 68.6677ZM200 68.5C201.381 68.5 202.5 69.6193 202.5 71V99.5C202.5 100.881 201.381 102 200 102C198.619 102 197.5 100.881 197.5 99.5V71C197.5 69.6193 198.619 68.5 200 68.5Z" fill="black"/>
<path d="M83.5745 217V217.705C91.5932 222.606 181.148 251.417 200.367 251.417C216.529 251.417 282.99 231.55 318 217V248.898C307.917 248.898 299.515 255.614 299.515 267.366C299.515 278.841 309.318 283.315 318 284.994V317.731C307.917 326.965 218.774 348.186 205.409 349.63C174.32 352.988 117.184 332.841 83.5745 316.053V284.994C83.5745 285.833 98.6988 287.512 103.74 268.205C107.773 252.76 91.9769 249.178 83.5745 248.059V217.705C82.829 217.249 82.7883 217 83.5745 217Z" fill="#BF795B"/>
<path d="M180 140C180 142.761 177.761 145 175 145C172.239 145 170 142.761 170 140C170 137.239 172.239 135 175 135C177.761 135 180 137.239 180 140Z" fill="black"/>
<path d="M225 145C227.761 145 230 142.761 230 140C230 137.239 227.761 135 225 135C222.239 135 220 137.239 220 140C220 142.761 222.239 145 225 145Z" fill="black"/>
<path d="M181.547 150.966C182.67 150.163 184.232 150.423 185.034 151.547C185.788 152.602 187.553 153.71 190.424 154.535C193.198 155.331 196.614 155.75 200.125 155.75C203.633 155.75 207.122 155.332 210.038 154.528C213.03 153.702 215.082 152.563 216.102 151.373C217 150.325 218.579 150.203 219.627 151.102C220.675 152 220.797 153.579 219.898 154.627C217.918 156.937 214.72 158.423 211.368 159.347C207.94 160.293 203.992 160.75 200.125 160.75C196.261 160.75 192.364 160.294 189.044 159.34C185.822 158.415 182.712 156.898 180.966 154.453C180.163 153.33 180.423 151.768 181.547 150.966Z" fill="black"/>
<path d="M219.136 68.6541C220.431 68.1768 221.869 68.8402 222.346 70.1357L232.846 98.6357C233.323 99.9313 232.66 101.369 231.364 101.846C230.069 102.323 228.631 101.66 228.154 100.364L217.654 71.8643C217.177 70.5687 217.84 69.1315 219.136 68.6541Z" fill="black"/>
<path d="M181.9 68.6677C183.188 69.1649 183.829 70.6121 183.332 71.9002L172.332 100.4C171.835 101.688 170.388 102.329 169.1 101.832C167.812 101.335 167.171 99.8879 167.668 98.5998L178.668 70.0998C179.165 68.8117 180.612 68.1705 181.9 68.6677Z" fill="black"/>
<path d="M200 68.5C201.381 68.5 202.5 69.6193 202.5 71V99.5C202.5 100.881 201.381 102 200 102C198.619 102 197.5 100.881 197.5 99.5V71C197.5 69.6193 198.619 68.5 200 68.5Z" fill="black"/>
<path fill-rule="evenodd" clip-rule="evenodd" d="M266.667 116.667C266.667 153.486 236.819 183.333 200 183.333C163.181 183.333 133.333 153.486 133.333 116.667C133.333 79.8477 163.181 50 200 50C236.819 50 266.667 79.8477 266.667 116.667ZM261.667 116.667C261.667 150.724 234.058 178.333 200 178.333C165.942 178.333 138.333 150.724 138.333 116.667C138.333 82.6091 165.942 55 200 55C234.058 55 261.667 82.6091 261.667 116.667Z" fill="black"/>
<path d="M282.862 189.533L281.474 185.576C276.523 171.554 273.262 162.284 277.108 155.255C280.26 149.494 287.283 147.497 293.092 150.675C296.374 152.471 298.698 155.704 299.458 159.197C302.81 157.954 306.786 158.167 310.068 159.962C315.877 163.141 317.984 170.131 314.832 175.893C310.986 182.922 301.421 185.175 286.943 188.569L282.862 189.533Z" fill="black"/>
<path fill-rule="evenodd" clip-rule="evenodd" d="M232.952 197.5C232.986 197.499 233.019 197.499 233.052 197.5H233.333C234.095 197.5 234.776 197.84 235.235 198.377C254.442 209.034 262.368 217.727 272.789 229.156C273.139 229.539 273.491 229.925 273.846 230.315C274.192 230.693 274.399 231.148 274.471 231.619C275.061 231.407 275.647 231.196 276.229 230.984C287.621 226.841 297.462 222.698 304.453 219.59C307.948 218.037 310.729 216.744 312.633 215.84C313.584 215.389 314.317 215.034 314.81 214.794L315.048 214.678L315.181 214.612L315.367 214.521L315.505 214.452L315.539 214.435L315.547 214.431L315.549 214.431C315.549 214.431 315.549 214.431 315.605 214.542L315.549 214.431L319.167 212.622V247.5C319.167 247.558 319.165 247.615 319.161 247.672C327.705 249.948 334 257.739 334 267C334 276.259 327.708 284.049 319.167 286.326V307.5H399C400.381 307.5 401.5 308.619 401.5 310C401.5 311.381 400.381 312.5 399 312.5H319.167V318.238L317.751 318.919L316.667 316.667C317.751 318.919 317.75 318.92 317.749 318.92L317.746 318.922L317.736 318.927L317.695 318.946L317.541 319.02C317.405 319.084 317.204 319.18 316.941 319.303C316.415 319.551 315.641 319.912 314.64 320.371C312.637 321.29 309.729 322.599 306.092 324.17C298.821 327.311 288.629 331.498 276.946 335.687C253.66 344.035 224.15 352.5 200 352.5C175.85 352.5 146.34 344.035 123.054 335.687C111.371 331.498 101.18 327.311 93.9079 324.17C90.2712 322.599 87.3627 321.29 85.3605 320.371C84.3594 319.912 83.5848 319.551 83.0589 319.303C82.7959 319.18 82.5951 319.084 82.4593 319.02L82.3046 318.946L82.2645 318.927L82.2538 318.922L82.2509 318.92C82.25 318.92 82.2495 318.919 83.3334 316.667L82.2495 318.919L80.8334 318.238V312.5H-1C-2.38071 312.5 -3.5 311.381 -3.5 310C-3.5 308.619 -2.38071 307.5 -1 307.5H80.8334V286.326C72.2919 284.049 66 276.259 66 267C66 257.739 72.2948 249.948 80.8392 247.672C80.8353 247.615 80.8334 247.558 80.8334 247.5V212.622L84.4514 214.431L84.413 214.507C84.4514 214.431 84.4513 214.431 84.4514 214.431L84.4531 214.431L84.4609 214.435L84.4946 214.452L84.6334 214.521L84.8359 214.621L84.9929 214.698L85.1903 214.794C85.6832 215.034 86.4156 215.389 87.3675 215.84C89.2712 216.744 92.0518 218.037 95.5466 219.59C102.494 222.678 112.256 226.79 123.558 230.906C133.027 221.425 148.029 206.524 165.549 197.764L166.077 197.5H232.952ZM314.167 286.999C314.111 287 314.056 287 314 287C302.954 287 294 278.046 294 267C294 255.954 302.954 247 314 247C314.056 247 314.111 247 314.167 247.001V220.646C312.266 221.543 309.666 222.745 306.484 224.16C299.413 227.302 289.462 231.492 277.938 235.683C255.705 243.767 227.368 251.949 202.5 252.473V347.469C225.278 346.916 252.883 339.002 275.259 330.98C286.819 326.835 296.91 322.689 304.11 319.58C307.709 318.026 310.583 316.731 312.555 315.827C312.874 315.68 313.17 315.544 313.441 315.418C313.598 315.346 313.746 315.277 313.886 315.212L314.167 315.081V286.999ZM85.8334 286.999L85.9099 287L86 287C97.0457 287 106 278.046 106 267C106 255.954 97.0457 247 86 247C85.9444 247 85.8889 247 85.8334 247.001V220.646C87.7339 221.543 90.3344 222.745 93.5159 224.16C100.587 227.302 110.538 231.492 122.062 235.683C144.295 243.767 172.632 251.949 197.5 252.473V347.469C174.722 346.916 147.117 339.002 124.741 330.98C113.181 326.835 103.09 322.689 95.8904 319.58C92.2914 318.026 89.4171 316.731 87.4453 315.827C86.8132 315.537 86.274 315.287 85.8334 315.081V286.999ZM128.771 232.765C150.732 240.427 177.211 247.5 200 247.5C222.288 247.5 248.106 240.735 269.774 233.27L269.09 232.519C259.278 221.758 252.01 213.788 235.35 204.186L200.5 239.036L165.232 203.768C165.189 203.725 165.148 203.68 165.108 203.635C150.484 211.6 137.738 223.828 128.771 232.765ZM171.036 202.5L200.5 231.964L229.964 202.5H171.036ZM86 282C94.2843 282 101 275.284 101 267C101 258.716 94.2843 252 86 252C77.7157 252 71 258.716 71 267C71 275.284 77.7157 282 86 282ZM329 267C329 275.284 322.284 282 314 282C305.716 282 299 275.284 299 267C299 258.716 305.716 252 314 252C322.284 252 329 258.716 329 267Z" fill="black"/>
</g>
<defs>
<clipPath id="clip0_10_393">
<rect width="400" height="400" fill="white"/>
</clipPath>
</defs>
</svg>
