<svg width="414" height="343" viewBox="0 0 414 343" fill="none" xmlns="http://www.w3.org/2000/svg">
<circle cx="171.486" cy="171.495" r="142" transform="rotate(13.4905 171.486 171.495)" fill="#4DF2A3"/>
<path d="M92.9862 72.6596C71.7533 89.6679 55.8006 113.599 48.9627 142.101C32.6001 210.306 74.6266 278.862 142.832 295.224C211.036 311.587 279.592 269.56 295.955 201.356C312.317 133.151 270.291 64.5952 202.086 48.2326C180.535 43.0625 158.949 43.7218 138.986 49.1944" stroke="black" stroke-width="5"/>
<path d="M109.659 133.01L146.475 155.726C130.829 153.582 99.2064 155.855 89.8429 156.023" stroke="black" stroke-width="5" stroke-linecap="round"/>
<path d="M244.044 165.25L200.813 169.276C215.715 174.521 242.782 191.238 251.03 195.721" stroke="black" stroke-width="5" stroke-linecap="round"/>
<path d="M130.328 191.444C144.034 198.377 184 209 199.5 209C197.385 256.256 111.296 232.339 130.328 191.444Z" stroke="black" stroke-width="5" stroke-linecap="round"/>
<path d="M327.727 103.722C339.586 111.447 347.651 141.658 350.201 155.798L349.632 167.805C348.096 173.146 360.038 186.489 366.201 192.493C377.426 188.618 401.301 178.342 406.993 168.234C414.109 155.601 391.434 116.986 386.58 116.152C382.698 115.485 368.487 121.423 361.867 124.475L356.123 109.94C339.068 84.9633 330.086 95.3878 327.727 103.722Z" fill="#4DF2A3"/>
<path d="M350.201 155.798C347.651 141.658 339.586 111.447 327.727 103.722C330.086 95.3878 339.068 84.9633 356.123 109.94L361.867 124.475M361.867 124.475C368.487 121.423 382.698 115.485 386.58 116.152C391.434 116.986 414.109 155.601 406.993 168.234C401.301 178.342 377.426 188.618 366.201 192.493C360.038 186.489 348.096 173.146 349.632 167.805M361.867 124.475C356.519 128.318 349.897 141.305 366.201 162.505C375.429 174.505 388.18 168.838 398.014 165.005" stroke="black" stroke-width="5" stroke-linecap="round"/>
</svg>
